<svg width="24" height="24" viewBox="0 0 24 24" fill="none" xmlns="http://www.w3.org/2000/svg">
<path d="M17.6589 0C18.1219 0 18.5745 0.140722 18.9595 0.40437C19.3445 0.668019 19.6446 1.04275 19.8218 1.48118C19.999 1.91962 20.0453 2.40205 19.955 2.86749C19.8647 3.33292 19.6417 3.76046 19.3143 4.09602C18.9869 4.43158 18.5697 4.6601 18.1156 4.75268C17.6615 4.84526 17.1907 4.79774 16.7629 4.61614C16.3352 4.43453 15.9695 4.127 15.7123 3.73242C15.455 3.33784 15.3177 2.87395 15.3177 2.39939C15.3177 1.76303 15.5644 1.15274 16.0034 0.702765C16.4425 0.252792 17.038 0 17.6589 0ZM13.0234 1.1997C13.3707 1.1997 13.7102 1.30524 13.9989 1.50297C14.2877 1.70071 14.5127 1.98176 14.6456 2.31058C14.7785 2.63941 14.8133 3.00123 14.7455 3.35031C14.6778 3.69939 14.5105 4.02004 14.265 4.27171C14.0194 4.52338 13.7066 4.69477 13.366 4.7642C13.0254 4.83364 12.6723 4.798 12.3515 4.6618C12.0306 4.5256 11.7564 4.29494 11.5635 3.99901C11.3705 3.70308 11.2676 3.35515 11.2676 2.99924C11.2676 2.52197 11.4525 2.06425 11.7818 1.72677C12.1111 1.38929 12.5577 1.1997 13.0234 1.1997ZM9.57023 2.99924C9.80175 2.99924 10.0281 3.0696 10.2206 3.20142C10.4131 3.33325 10.5631 3.52061 10.6517 3.73983C10.7403 3.95905 10.7635 4.20026 10.7183 4.43298C10.6731 4.6657 10.5617 4.87947 10.398 5.04725C10.2342 5.21503 10.0257 5.32929 9.7986 5.37558C9.57153 5.42187 9.33617 5.39811 9.12228 5.30731C8.90838 5.21651 8.72557 5.06274 8.59694 4.86545C8.46832 4.66816 8.39967 4.43621 8.39967 4.19893C8.39967 3.88075 8.52299 3.57561 8.74252 3.35062C8.96204 3.12563 9.25978 2.99924 9.57023 2.99924ZM7.17057 4.79878C7.40209 4.79878 7.6284 4.86914 7.8209 5.00097C8.0134 5.13279 8.16344 5.32016 8.25203 5.53937C8.34063 5.75859 8.36381 5.99981 8.31864 6.23253C8.27348 6.46524 8.16199 6.67901 7.99829 6.84679C7.83458 7.01457 7.626 7.12883 7.39894 7.17512C7.17187 7.22141 6.9365 7.19765 6.72261 7.10685C6.50872 7.01605 6.3259 6.86228 6.19728 6.66499C6.06865 6.4677 6 6.23575 6 5.99848C6 5.6803 6.12333 5.37515 6.34285 5.15016C6.56238 4.92518 6.86011 4.79878 7.17057 4.79878ZM15.9381 11.997C16.3465 11.9942 16.7497 11.9039 17.122 11.7318C17.4942 11.5598 17.8272 11.3098 18.0996 10.9979C18.3719 10.686 18.5775 10.3192 18.7032 9.921C18.8289 9.5228 18.8719 9.10204 18.8294 8.68579C18.7269 7.93338 18.3599 7.24519 17.7974 6.7504C17.2348 6.25562 16.5155 5.98825 15.7742 5.99848H12.8712C11.3335 5.99657 9.83758 6.51196 8.61323 7.46554C7.38887 8.41912 6.50372 9.75817 6.09365 11.2771C5.93707 11.8345 5.98281 12.4312 6.22241 12.9567C6.74556 14.0638 7.01768 15.2777 7.01839 16.5078C6.98173 17.6693 6.70652 18.8098 6.2107 19.855C6.06073 20.189 5.99098 20.555 6.00727 20.9223C6.02356 21.2897 6.12543 21.6477 6.30435 21.9664C6.77372 22.7326 7.46483 23.3294 8.28117 23.6735C9.09752 24.0177 9.99834 24.0919 10.8579 23.8859C11.4953 23.7349 12.0881 23.4295 12.5868 22.9955C13.0855 22.5614 13.4755 22.0113 13.7242 21.3911C13.9729 20.7709 14.0731 20.0987 14.0163 19.4307C13.9596 18.7627 13.7475 18.1183 13.398 17.5515C13.0314 16.9703 12.8475 16.2878 12.8712 15.596C12.8712 15.596 12.602 11.997 15.9381 11.997Z" fill="#FF9696"/>
</svg>